<svg width="22" height="34" viewBox="0 0 22 34" fill="none" xmlns="http://www.w3.org/2000/svg">
<path fill-rule="evenodd" clip-rule="evenodd" d="M2.79291 0.292889C2.98045 0.105353 3.2348 -2.86096e-06 3.50002 0L10.75 7.82014e-05L11.5 8.63076e-05L18 0C18.2652 -2.86096e-06 18.5196 0.105353 18.7071 0.292889C18.8946 0.480426 19 0.734782 19 1V4.99986C19 5.55213 18.5523 5.99983 18 5.99986L17.0027 5.9999V17.6431L21.2741 22.8668C21.5187 23.1659 21.5691 23.5791 21.4036 23.9282C21.2381 24.2773 20.8863 24.4998 20.5 24.4998L12.5 24.4998V28.4999V31.9999C12.5 32.8283 11.8284 33.4999 11 33.4999C10.1716 33.4999 9.49998 32.8283 9.49998 31.9999V28.4999V24.4998L1.00002 24.4998C0.613676 24.4998 0.261895 24.2773 0.0964026 23.9282C-0.0690898 23.5791 -0.0186855 23.1659 0.225875 22.8668L4.49732 17.6431V5.9999L3.49997 5.99986C2.9477 5.99983 2.50001 5.55213 2.50001 4.99986V1C2.50001 0.734782 2.60537 0.480426 2.79291 0.292889Z" fill="#757575"/>
</svg>
